<svg width="0" height="0" class="hidden">
  <symbol xmlns="http://www.w3.org/2000/svg" viewBox="0 0 48 48" id="facebook">
    <linearGradient id="Ld6sqrtcxMyckEl6xeDdMa" x1="9.993" x2="40.615" y1="9.993" y2="40.615" gradientUnits="userSpaceOnUse">
      <stop offset="0" stop-color="#2aa4f4"></stop>
      <stop offset="1" stop-color="#007ad9"></stop>
    </linearGradient>
    <path fill="#007163" d="M24,4C12.954,4,4,12.954,4,24s8.954,20,20,20s20-8.954,20-20S35.046,4,24,4z"></path>
    <path fill="#fff" d="M26.707,29.301h5.176l0.813-5.258h-5.989v-2.874c0-2.184,0.714-4.121,2.757-4.121h3.283V12.46 c-0.577-0.078-1.797-0.248-4.102-0.248c-4.814,0-7.636,2.542-7.636,8.334v3.498H16.06v5.258h4.948v14.452 C21.988,43.9,22.981,44,24,44c0.921,0,1.82-0.084,2.707-0.204V29.301z"></path>
  </symbol>
  <symbol fill="none" xmlns="http://www.w3.org/2000/svg" viewBox="0 0 40 40" id="instagram">
    <g clip-path="url(#clip0_19_472)">
      <path d="M23.8281 20C23.8281 22.1143 22.1143 23.8281 20 23.8281C17.8857 23.8281 16.1719 22.1143 16.1719 20C16.1719 17.8857 17.8857 16.1719 20 16.1719C22.1143 16.1719 23.8281 17.8857 23.8281 20Z" fill="#007163"></path>
      <path d="M28.9526 13.2269C28.7686 12.7282 28.475 12.2769 28.0936 11.9064C27.7231 11.5249 27.272 11.2313 26.7731 11.0473C26.3684 10.8901 25.7605 10.7031 24.6408 10.6521C23.4296 10.5969 23.0664 10.585 20 10.585C16.9333 10.585 16.5701 10.5966 15.3592 10.6518C14.2395 10.7031 13.6313 10.8901 13.2269 11.0473C12.728 11.2313 12.2766 11.5249 11.9064 11.9064C11.525 12.2769 11.2314 12.7279 11.0471 13.2269C10.8899 13.6315 10.7028 14.2397 10.6519 15.3594C10.5966 16.5704 10.5847 16.9335 10.5847 20.0002C10.5847 23.0667 10.5966 23.4298 10.6519 24.6411C10.7028 25.7607 10.8899 26.3687 11.0471 26.7733C11.2314 27.2723 11.5247 27.7233 11.9061 28.0938C12.2766 28.4753 12.7277 28.7689 13.2266 28.9529C13.6313 29.1104 14.2395 29.2974 15.3592 29.3484C16.5701 29.4036 16.933 29.4152 19.9997 29.4152C23.0667 29.4152 23.4299 29.4036 24.6405 29.3484C25.7602 29.2974 26.3684 29.1104 26.7731 28.9529C27.7747 28.5665 28.5663 27.7749 28.9526 26.7733C29.1098 26.3687 29.2969 25.7607 29.3481 24.6411C29.4034 23.4298 29.415 23.0667 29.415 20.0002C29.415 16.9335 29.4034 16.5704 29.3481 15.3594C29.2972 14.2397 29.1101 13.6315 28.9526 13.2269ZM20 25.8972C16.7429 25.8972 14.1025 23.2571 14.1025 19.9999C14.1025 16.7428 16.7429 14.1027 20 14.1027C23.2568 14.1027 25.8972 16.7428 25.8972 19.9999C25.8972 23.2571 23.2568 25.8972 20 25.8972ZM26.1304 15.2477C25.3693 15.2477 24.7522 14.6307 24.7522 13.8696C24.7522 13.1085 25.3693 12.4914 26.1304 12.4914C26.8915 12.4914 27.5085 13.1085 27.5085 13.8696C27.5082 14.6307 26.8915 15.2477 26.1304 15.2477Z" fill="#007163"></path>
      <path d="M20 0C8.95599 0 0 8.95599 0 20C0 31.044 8.95599 40 20 40C31.044 40 40 31.044 40 20C40 8.95599 31.044 0 20 0ZM31.4151 24.7348C31.3596 25.9573 31.1652 26.792 30.8813 27.5226C30.2847 29.0652 29.0652 30.2847 27.5226 30.8813C26.7923 31.1652 25.9573 31.3593 24.7351 31.4151C23.5104 31.4709 23.1192 31.4844 20.0003 31.4844C16.8811 31.4844 16.4902 31.4709 15.2652 31.4151C14.043 31.3593 13.208 31.1652 12.4777 30.8813C11.7111 30.593 11.0172 30.141 10.4434 29.5566C9.85931 28.9832 9.40735 28.2889 9.11896 27.5226C8.83514 26.7923 8.64075 25.9573 8.58521 24.7351C8.52875 23.5101 8.51562 23.1189 8.51562 20C8.51562 16.8811 8.52875 16.4899 8.5849 15.2652C8.64044 14.0427 8.83453 13.208 9.11835 12.4774C9.40674 11.7111 9.85901 11.0168 10.4434 10.4434C11.0168 9.85901 11.7111 9.40704 12.4774 9.11865C13.208 8.83484 14.0427 8.64075 15.2652 8.5849C16.4899 8.52905 16.8811 8.51562 20 8.51562C23.1189 8.51562 23.5101 8.52905 24.7348 8.58521C25.9573 8.64075 26.792 8.83484 27.5226 9.11835C28.2889 9.40674 28.9832 9.85901 29.5569 10.4434C30.141 11.0172 30.5933 11.7111 30.8813 12.4774C31.1655 13.208 31.3596 14.0427 31.4154 15.2652C31.4713 16.4899 31.4844 16.8811 31.4844 20C31.4844 23.1189 31.4713 23.5101 31.4151 24.7348Z" fill="#007163"></path>
    </g>
    <defs>
      <clipPath id="clip0_19_472">
        <rect width="40" height="40" fill="white"></rect>
      </clipPath>
    </defs>
  </symbol>
  <symbol fill="none" xmlns="http://www.w3.org/2000/svg" viewBox="0 0 40 40" id="twitter">
    <g clip-path="url(#clip0_21_478)">
      <path d="M20 0C8.97204 0 0 8.97204 0 20C0 31.0271 8.97204 40 20 40C31.0271 40 40 31.0271 40 20C40 8.97204 31.0288 0 20 0ZM28.9221 15.4225C28.931 15.6207 28.9358 15.8205 28.9358 16.0203C28.9358 22.1034 24.3068 29.1154 15.8374 29.1154C13.2377 29.1154 10.8177 28.3558 8.78112 27.0491C9.14122 27.0918 9.50777 27.1135 9.87916 27.1135C12.0366 27.1135 14.0208 26.3772 15.5966 25.143C13.5825 25.1059 11.8819 23.7751 11.2962 21.9455C11.5766 21.9987 11.8658 22.0285 12.1614 22.0285C12.5812 22.0285 12.9888 21.9737 13.3747 21.8682C11.2688 21.4461 9.68259 19.5859 9.68259 17.3544C9.68259 17.3351 9.68259 17.3149 9.6834 17.2964C10.3037 17.6404 11.0135 17.8482 11.7675 17.8716C10.5333 17.0474 9.72045 15.6376 9.72045 14.0409C9.72045 13.1966 9.94683 12.4055 10.3432 11.7256C12.6126 14.5114 16.0058 16.3433 19.8308 16.5367C19.7519 16.1991 19.7124 15.8487 19.7124 15.487C19.7124 12.9453 21.7731 10.8837 24.3148 10.8837C25.6392 10.8837 26.834 11.4428 27.675 12.3371C28.7247 12.1308 29.7076 11.749 30.5994 11.2197C30.253 12.2952 29.5255 13.1966 28.5725 13.767C29.5045 13.6558 30.3939 13.4093 31.2165 13.0428C30.6026 13.9644 29.822 14.7756 28.9221 15.4225Z" fill="#007163"></path>
    </g>
    <defs>
      <clipPath id="clip0_21_478">
        <rect width="40" height="40" fill="white"></rect>
      </clipPath>
    </defs>
  </symbol>
</svg>