<svg width="1440" height="1264" viewBox="0 0 1440 1264" fill="none" xmlns="http://www.w3.org/2000/svg">
<path opacity="0.2" d="M-307.911 560.312C-235.192 487.247 -146.49 414.49 -42.7383 413.938C29.938 413.742 100.754 452.464 139.987 511.816C170.686 558.253 183.245 614.229 215.59 657.666C256.212 712.102 327.064 741.521 398.452 736.407C479.125 730.795 552.305 682.358 632.1 682.808C691.909 683.144 748.324 711.294 795.586 747.368C847.052 786.661 884.842 835.709 935.876 873.065C978.511 904.197 1028.26 926.831 1077.23 918.434C1125.74 910.122 1167.01 868.294 1183.6 820.42C1199.29 775.18 1200.91 725.598 1195.47 677.328C1190.58 633.926 1184.96 588.856 1199.88 549.114C1216.53 504.718 1256.33 472.11 1298.01 446.034C1338.92 420.557 1382.77 400.198 1419.8 370.818C1466.83 333.481 1501.69 281.593 1517.66 224.323" stroke="#007163" stroke-miterlimit="10"/>
<path opacity="0.2" d="M-306.557 564.077C-231.014 490.255 -141.623 415.116 -35.6661 413.865C37.6692 412.996 109.731 451.564 148.256 512.299C178.084 559.327 188.103 616.759 219.079 663.058C257.902 721.107 329.816 756.061 400.898 751.423C482.59 746.091 556.549 693.323 638.352 691.982C700.039 690.967 758.147 719.707 807.18 755.817C856.212 791.926 898.823 835.833 947.777 872.057C987.522 901.476 1035.66 926.549 1085.3 919.324C1133.9 912.247 1174.11 874.21 1193.57 829.798C1213.02 785.402 1214.51 735.511 1209.59 687.709C1205.35 646.488 1196.71 604.08 1208.75 564.159C1222.57 518.381 1261.54 483.792 1302.82 458.329C1344.13 432.861 1389.53 413.793 1428.39 384.851C1478.04 347.881 1515.36 295.163 1533.26 236.749" stroke="#007163" stroke-miterlimit="10"/>
</svg>
